# xmcd
#
# Track frame offsets: 
#        150
#        14984
#        26493
#        49283
#        70300
#        86648
#        104394
#        122707
#        141123
#        159775
#        172370
#        182393
#        197507
#        214085
#        229149
#        245010
#
# Disc length: 3429 seconds
#
# Revision: 0
# Processed by: cddbd v1.5.2PL0 Copyright (c) Steve Scherf et al.
# Submitted via: ExactAudioCopy v0.95b4
#
DISCID=e50d6310
DTITLE=Various Artist - Worzle
DYEAR=2003
DGENRE=Folk
TTITLE0=Siebenpfeifer/Michels Ode
TTITLE1=Siebenpfeifer/Hungerlied
TTITLE2=Siebenpfeifer/Das Lied vom Trifels
TTITLE3=Siebenpfeifer/Sickingers Jagd
TTITLE4=Siebenpfeifer/Wohlgeboren
TTITLE5=Grashalm/Schoppedans
TTITLE6=Grashalm/Luscht uff dich
TTITLE7=Grashalm/Im Gardehaus
TTITLE8=Grashalm/De pälzer Bu
TTITLE9=Grashalm/Finnische Polka
TTITLE10=Däumling/Ich saz eime Steine
TTITLE11=Däumling/Karnickeljagd (Die Müllerin)
TTITLE12=Däumling/Däumlings Menuett
TTITLE13=Däumling/Komm in den totgesagten Park
TTITLE14=Reinig, Braun und Böhm/Anja
TTITLE15=Reinig, Braun und Böhm/Es erschde Johr
EXTD=
EXTT0=
EXTT1=
EXTT2=
EXTT3=
EXTT4=
EXTT5=
EXTT6=
EXTT7=
EXTT8=
EXTT9=
EXTT10=
EXTT11=
EXTT12=
EXTT13=
EXTT14=
EXTT15=
PLAYORDER=
